<?xml version="1.0" encoding="utf-8"?>
<!-- Generator: Adobe Illustrator 16.0.0, SVG Export Plug-In . SVG Version: 6.00 Build 0)  -->
<!DOCTYPE svg PUBLIC "-//W3C//DTD SVG 1.1//EN" "http://www.w3.org/Graphics/SVG/1.1/DTD/svg11.dtd">
<svg version="1.1" id="Capa_1" xmlns="http://www.w3.org/2000/svg" xmlns:xlink="http://www.w3.org/1999/xlink" x="0px" y="0px"
	 width="112.443px" height="112.451px" viewBox="0 0 112.443 112.451" enable-background="new 0 0 112.443 112.451"
	 xml:space="preserve">
<path fill="#CCCCCC" d="M80.329,35.115c-8.874,0-16.065,7.195-16.065,16.068c0-8.873-7.195-16.068-16.069-16.068
	S32.127,42.31,32.127,51.183c0-8.873-7.194-16.068-16.067-16.068v16.068v32.136c0,8.873,7.193,16.068,16.067,16.068
	s16.067-7.195,16.067-16.068c0,8.873,7.194,16.068,16.069,16.068c8.873,0,16.065-7.195,16.065-16.068
	c0,8.873,7.195,16.068,16.068,16.068V83.319V51.184C96.397,42.311,89.203,35.115,80.329,35.115z M40.16,83.319
	c-4.438,0-8.034-3.596-8.034-8.033V59.218c0-4.438,3.598-8.034,8.034-8.034s8.033,3.596,8.033,8.034v16.068
	C48.193,79.724,44.595,83.319,40.16,83.319z M72.294,83.319c-4.436,0-8.031-3.596-8.031-8.033V59.218
	c0-4.438,3.597-8.034,8.031-8.034c4.438,0,8.034,3.596,8.034,8.034v16.068C80.329,79.724,76.732,83.319,72.294,83.319z"/>
<path fill="#CCCCCC" d="M24.09,11.014c-4.436,0-8.032,3.597-8.032,8.035c0,3.169,1.841,5.898,4.51,7.204l-0.007,0.015l11.564,5.653
	V19.049C32.125,14.61,28.529,11.014,24.09,11.014z"/>
<path fill="#CCCCCC" d="M56.227,11.014c-4.438,0-8.034,3.597-8.034,8.035c0,3.169,1.841,5.898,4.511,7.204l-0.008,0.015
	l11.566,5.653V19.049C64.262,14.61,60.665,11.014,56.227,11.014z"/>
</svg>
