<svg version="1.1" xmlns="http://www.w3.org/2000/svg" xmlns:xlink="http://www.w3.org/1999/xlink" x="0px" y="0px" viewBox="0 0 530.063 112.438" enable-background="new 0 0 530.063 112.438" xml:space="preserve">

	<path fill="#ccc" class="icon-path" d="M80.311,32.126c-8.872,0-16.063,7.191-16.063,16.062c0-8.87-7.19-16.062-16.062-16.062
		c-8.87,0-16.063,7.191-16.063,16.062c0-8.87-7.191-16.062-16.062-16.062v16.062v32.125c0,8.869,7.189,16.061,16.06,16.062
		l0.002-40.155c0-4.436,3.597-8.031,8.032-8.031c4.435,0,8.03,3.596,8.03,8.031v24.094c0,8.869,7.189,16.061,16.061,16.062
		l0.001-40.155c0-4.436,3.595-8.031,8.03-8.031s8.032,3.596,8.032,8.031l0.001,24.113c0.011,8.861,7.196,16.042,16.061,16.042
		V80.313V48.188C96.372,39.317,89.182,32.126,80.311,32.126z"></path>
	<path fill="#ccc" class="icon-path" d="M137.531,32.126L137.531,32.126c-16.063-0.001-32.126,32.123-32.126,48.186c0,16.064,16.063,16.063,16.063,16.063
		c8.864,0,16.05-7.182,16.061-16.043l0.002-0.001v0.001c0.011,8.861,7.196,16.043,16.061,16.043V80.312V48.188
		C153.592,39.317,146.401,32.127,137.531,32.126z M137.53,72.281c0,4.436-3.596,8.031-8.031,8.031s-8.031-3.596-8.031-8.031V56.219
		c0-4.436,3.596-8.031,8.031-8.031s8.031,3.596,8.031,8.031V72.281z"></path>
	<path fill="#ccc" class="icon-path" d="M280.197,32.148c-8.872,0-16.063,7.191-16.063,16.063c0-8.871-7.19-16.063-16.062-16.063
		c-8.87,0-16.063,7.191-16.063,16.063c0-8.871-7.191-16.063-16.062-16.063v16.063v32.124c0,8.87,7.189,16.061,16.06,16.062
		l0.002-40.154c0-4.436,3.597-8.031,8.032-8.031c4.435,0,8.03,3.596,8.03,8.031v24.093c0,8.87,7.189,16.062,16.061,16.062
		l0.001-40.154c0-4.436,3.595-8.031,8.03-8.031s8.032,3.596,8.032,8.031l0.001,24.112c0.011,8.861,7.196,16.042,16.061,16.042
		V80.335V48.211C296.259,39.34,289.068,32.148,280.197,32.148z"></path>
	<path fill="#ccc" class="icon-path" d="M367.757,16.084l0.001,64.271c0.011,8.861,7.196,16.042,16.061,16.042V80.335V32.146
		C383.818,23.275,376.628,16.084,367.757,16.084z"></path>
	<path fill="#ccc" class="icon-path" d="M396.638,16.084l0.001,64.271c0.011,8.861,7.196,16.042,16.061,16.042V80.335V32.146
		C412.699,23.275,405.509,16.084,396.638,16.084z"></path>
	<path fill="#ccc" class="icon-path" d="M456.305,37.566c-11.857-6.514-22.694-2.242-26.695,0c-4.001,2.244-4.976,4.994-4.976,7.021v5.136
		c0.002,9.01,0.002,18.727,0.005,24.006v3.176v0.261c0,7.614,8.557,15.439,14.799,18.241c4.063,1.823,9.011,2.021,12.214,2.021
		c6.981,0,10.151-2.077,10.976-2.599c1.066-0.675,2.37-1.68,2.79-2.766c0.5-1.292,0.791-2.167-0.311-5.354
		c-1.254-3.627-3.104-5.02-3.928-5.645c-0.522-0.397-2.256-1.414-4-1.393l-0.002-0.002c0,0-1.781-0.135-4.359,1.957
		c-1.127,0.703-3.446,1.121-4.877,1.121c-3.752,0-6.854-2.758-7.384-6.345l-0.005-7.308l0.002-1.035v-0.008v-0.066
		c0.01-0.328,0.173-1.627,2.094-1.398c0,0,4.491,0.339,11.184,1.473c6.691,1.132,12.365,1.205,12.365,1.205
		c0.363,0,2.328-0.59,3.225-4.992C471.002,56.518,468.161,44.08,456.305,37.566z M453.395,60.968c0,0.29-0.242,0.507-0.556,0.507
		c-0.438,0-11.331-1.352-11.768-1.547c-0.437-0.191-0.522-0.578-0.522-1.012s-0.002-5.603-0.002-5.603
		c0-3.554,0.62-6.321,4.373-6.321c4.127,0,8.476,1.821,8.476,7.438h0.002C453.397,54.43,453.395,60.678,453.395,60.968z"></path>
	<path fill="#ccc" class="icon-path" d="M311.803,23.286l-0.008,0.014l11.562,5.652V16.083c0-4.436-3.596-8.03-8.031-8.03c-4.437,0-8.031,3.595-8.031,8.03
		C307.294,19.253,309.134,21.981,311.803,23.286z"></path>
	<path fill="#ccc" class="icon-path" d="M343.926,23.286l-0.008,0.014l11.562,5.652V16.083c0-4.436-3.596-8.03-8.03-8.03c-4.436,0-8.031,3.595-8.031,8.03
		C339.418,19.253,341.259,21.981,343.926,23.286z"></path>
	<path fill="#ccc" class="icon-path" d="M339.422,32.151l-0.001,41.156c0,4.437-3.595,8.031-8.03,8.031s-8.032-3.595-8.032-8.031l-0.001-25.113
		c-0.011-8.861-7.196-16.043-16.061-16.043v16.063v32.124c0,8.87,7.19,16.062,16.062,16.062c8.872,0,16.063-7.191,16.063-16.062
		c0,8.87,7.19,16.062,16.062,16.062V72.307V48.214C355.482,39.344,348.293,32.152,339.422,32.151z"></path>
	<path fill="#ccc" class="icon-path" d="M521.268,45.263c-0.012-0.04-0.024-0.076-0.037-0.103c-0.787-2.05-5.105-9.936-13.779-9.936
		c-9.101,0-13.076,10.483-13.504,11.692c-0.66-8.265-7.562-14.769-15.996-14.769l0.001,48.206
		c0.011,8.861,7.196,16.042,16.061,16.042V80.335V56.798c0.57-3.31,3.455-5.833,6.945-5.833c3.522,0,6.411,2.579,6.938,5.938
		c0.004-0.003,0.007-0.005,0.009-0.009l-0.002,0.008c0,0,0.152,0.653,0.99,0.783c0.839,0.129,3.796,0.865,8.549-3.863
		c4.146-4.125,4.124-7.262,3.901-8.332C521.327,45.434,521.301,45.353,521.268,45.263z"></path>
	<path fill="#ccc" class="icon-path" d="M208.184,45.239c-0.012-0.04-0.024-0.076-0.037-0.103c-0.787-2.05-5.105-9.936-13.779-9.936
		c-9.101,0-13.076,10.483-13.504,11.692c-0.66-8.265-7.562-14.769-15.996-14.769l0.001,48.206
		c0.011,8.861,7.196,16.042,16.061,16.042V80.312V56.774c0.57-3.31,3.455-5.833,6.945-5.833c3.522,0,6.411,2.579,6.938,5.938
		c0.004-0.003,0.007-0.005,0.009-0.009l-0.002,0.008c0,0,0.152,0.653,0.99,0.783c0.839,0.129,3.796,0.865,8.549-3.863
		c4.146-4.125,4.124-7.262,3.901-8.332C208.243,45.41,208.217,45.329,208.184,45.239z"></path>
</svg>
